# xmcd
# 
# Track frame offsets:
#     182
#     12045
#     53590
#     82732
#     101397
#     126570
#     153615
#     172692
# 
# Disc length: 2643
# 
# Revision: 3
# Processed by: cddbd v1.5.2PL0 Copyright (c) Steve Scherf et al.
# Submitted via: BonkEnc v1.0.15
# 
DISCID=4f0a5108
DTITLE=Premiata Forneria Marconi - Jet Lag
DYEAR=1977
DGENRE=Progressive Rock
TTITLE0=Peninsula
TTITLE1=Jet Lag
TTITLE2=Storia In LA
TTITLE3=Breakin' In
TTITLE4=Cerco La Lingua
TTITLE5=Meridiani
TTITLE6=Left-Handed Theory
TTITLE7=Traveler
EXTD=
EXTT0=
EXTT1=
EXTT2=
EXTT3=
EXTT4=
EXTT5=
EXTT6=
EXTT7=
PLAYORDER=
